<?xml version="1.0" encoding="UTF-8"?>
<svg width="98px" height="102px" viewBox="0 0 98 102" version="1.1" xmlns="http://www.w3.org/2000/svg" xmlns:xlink="http://www.w3.org/1999/xlink">
    <!-- Generator: sketchtool 52.6 (67491) - http://www.bohemiancoding.com/sketch -->
    <title>A788B881-29C7-48D6-A6EE-57B85CB80910</title>
    <desc>Created with sketchtool.</desc>
    <g id="AKQ3900DLP-118---Drupal-Landingpage" stroke="none" stroke-width="1" fill="none" fill-rule="evenodd">
        <g id="01-Drupal-Landingpage-V1" transform="translate(-381.000000, -972.000000)" fill="#FFFFFF" stroke="#FFFFFF">
            <g id="Group-9" transform="translate(245.000000, 910.000000)">
                <g id="icon-drupal" transform="translate(137.000000, 63.000000)">
                    <path d="M21.8034,100 C10.088136,100 0.4881356,90.529696 0.4881356,78.97272 C0.4881356,67.57624 10.088136,58.10594 21.8034,58.10594 C24.89492,58.10594 27.98644,58.748 30.75254,60.19262 C39.8644,47.83306 39.8644,47.83306 39.8644,47.83306 C37.0983,44.6228 35.47118,40.60996 35.47118,36.4366 C35.47118,34.51044 35.7966,32.74478 36.44746,30.97914 C21.9661,22.4719 21.9661,22.4719 21.9661,22.4719 C19.52542,24.7191 16.4339,26.00322 13.17966,26.00322 C5.857628,26.00322 0,20.0642 0,13.0016 C0,5.7785 5.857628,0 13.17966,0 C20.33898,0 26.35932,5.7785 26.35932,13.0016 C26.35932,13.96468 26.1966,15.08828 25.87118,16.05136 C40.35254,24.55858 40.35254,24.55858 40.35254,24.55858 C43.60678,21.1878 48.16272,19.10112 52.88136,19.10112 C59.0644,19.10112 64.75932,22.3114 67.85084,27.60834 C75.98644,25.04012 75.98644,25.04012 75.98644,25.04012 C76.31186,19.9037 80.70508,15.89086 85.91186,15.89086 C91.44406,15.89086 96,20.22472 96,25.68218 C96,31.13964 91.44406,35.63402 85.91186,35.63402 C82.98306,35.63402 80.21696,34.34992 78.42712,32.10272 C70.29152,34.67094 70.29152,34.67094 70.29152,34.67094 C70.29152,35.313 70.45424,35.79454 70.45424,36.4366 C70.45424,45.9069 62.48136,53.61156 52.88136,53.61156 C50.6034,53.61156 48.32542,53.13002 46.04746,52.16694 C37.0983,64.52648 37.0983,64.52648 37.0983,64.52648 C40.84068,68.53932 42.95594,73.51526 42.95594,78.97272 C42.95594,90.529696 33.35594,100 21.8034,100 Z M21.8034,60.35314 C11.227118,60.35314 2.766102,68.69984 2.766102,78.97272 C2.766102,89.406104 11.227118,97.752806 21.8034,97.752806 C32.21694,97.752806 40.67796,89.406104 40.67796,78.97272 C40.67796,73.83628 38.56272,69.02086 34.82034,65.48956 C34.3322,65.16854 34.3322,64.52648 34.65762,64.04494 C44.74576,50.08026 44.74576,50.08026 44.74576,50.08026 C45.07118,49.59872 45.72204,49.4382 46.21016,49.75922 C48.32542,50.72232 50.6034,51.36436 52.88136,51.36436 C61.34238,51.36436 68.17628,44.6228 68.17628,36.4366 C68.17628,35.63402 68.01356,34.99198 67.85084,34.1894 C67.85084,33.54736 68.17628,33.06582 68.6644,32.9053 C78.42712,29.69502 78.42712,29.69502 78.42712,29.69502 C78.91526,29.53452 79.4034,29.69502 79.72882,30.17656 C81.19322,32.10272 83.4712,33.38684 85.91186,33.38684 C90.30508,33.38684 93.72204,29.85554 93.72204,25.68218 C93.72204,21.50882 90.30508,18.13804 85.91186,18.13804 C81.68136,18.13804 78.2644,21.50882 78.2644,25.68218 C78.2644,25.8427 78.2644,25.8427 78.2644,25.8427 C78.2644,26.32424 77.93898,26.64526 77.45084,26.80578 C67.68814,30.01606 67.68814,30.01606 67.68814,30.01606 C67.2,30.17656 66.54916,29.85554 66.38644,29.374 C63.78306,24.55858 58.57628,21.34832 52.88136,21.34832 C48.48814,21.34832 44.25762,23.27448 41.32882,26.64526 C41.0034,27.1268 40.35254,27.28732 39.8644,26.9663 C23.91864,17.49598 23.91864,17.49598 23.91864,17.49598 C23.59322,17.33548 23.2678,16.69342 23.4305,16.21188 C23.75594,15.2488 24.08136,14.1252 24.08136,13.0016 C24.08136,7.0626 19.2,2.2472 13.17966,2.2472 C7.159322,2.2472 2.277966,7.0626 2.277966,13.0016 C2.277966,18.94062 7.159322,23.75602 13.17966,23.75602 C16.108474,23.75602 18.874578,22.4719 20.98984,20.38524 C21.31526,20.0642 21.9661,19.9037 22.45424,20.22472 C38.4,29.53452 38.4,29.53452 38.4,29.53452 C38.88814,29.85554 39.05084,30.4976 38.88814,30.97914 C38.07458,32.74478 37.74916,34.51044 37.74916,36.4366 C37.74916,40.28892 39.37628,43.98074 42.14238,46.86998 C42.6305,47.191 42.6305,47.83306 42.30508,48.3146 C32.05424,62.2793 32.05424,62.2793 32.05424,62.2793 C31.72882,62.76084 31.07796,62.76084 30.58984,62.60032 C27.98644,61.1557 24.89492,60.35314 21.8034,60.35314 Z" id="Fill-1"></path>
                </g>
            </g>
        </g>
    </g>
</svg>