<?xml version="1.0" encoding="UTF-8"?>
<svg width="71px" height="76px" viewBox="0 0 71 76" version="1.1" xmlns="http://www.w3.org/2000/svg" xmlns:xlink="http://www.w3.org/1999/xlink">
    <!-- Generator: sketchtool 52.6 (67491) - http://www.bohemiancoding.com/sketch -->
    <title>11EA9149-F8D6-443F-9CD0-63C1A0FD2E6D</title>
    <desc>Created with sketchtool.</desc>
    <g id="AKQ3900DLP-118---Drupal-Landingpage" stroke="none" stroke-width="1" fill="none" fill-rule="evenodd">
        <g id="01-Drupal-Landingpage-V1" transform="translate(-941.000000, -2772.000000)" fill="#FFFFFF" stroke="#FFFFFF">
            <g id="Group-12" transform="translate(40.000000, 2273.000000)">
                <g id="Group-11" transform="translate(274.000000, 496.000000)">
                    <g id="icon-maintenance" transform="translate(628.000000, 4.000000)">
                        <path d="M58.9736386,43.3018551 C57.1616347,43.3018551 55.7120467,44.7993282 55.7120467,46.6711657 C55.7120467,48.5430033 57.1616347,50.0404763 58.9736386,50.0404763 C60.7856275,50.0404763 62.3560158,48.5430033 62.3560158,46.6711657 C62.3560158,44.7993282 60.7856275,43.3018551 58.9736386,43.3018551 Z M58.9736386,48.2934269 C58.1280368,48.2934269 57.4032353,47.5446829 57.4032353,46.6711657 C57.4032353,45.7976335 58.1280368,45.0489045 58.9736386,45.0489045 C59.9400257,45.0489045 60.6648272,45.7976335 60.6648272,46.6711657 C60.6648272,47.5446829 59.9400257,48.2934269 58.9736386,48.2934269 Z M69,46.6711657 C69,40.9308649 64.5304055,36.3136576 58.9736386,36.3136576 C53.537642,36.3136576 49.0680625,40.9308649 49.0680625,46.6711657 C49.0680625,52.037102 52.9336557,56.404718 58.0072366,56.9038857 C55.7120467,65.888709 48.1016604,72.2529506 39.4040869,72.2529506 C29.0153247,72.2529506 20.5593517,63.6424918 20.3177512,52.9106192 C20.6801519,52.5362547 21.2841532,51.9123139 22.0089398,50.4148408 C22.0089398,50.4148408 24.3041447,45.9224367 24.0625442,43.6762196 C25.7537328,42.5531261 30.2233273,39.1838155 33.847305,31.5716771 C36.2632952,26.4553171 37.592098,19.0927551 38.075299,16.097809 C38.5585001,13.6020306 38.8001006,11.1062371 38.8001006,9.35918776 C38.9208858,6.4890449 38.5585001,5.74030082 38.075299,5.49072449 C37.2296972,4.99157184 35.9008944,4.49241918 34.8137071,4.11803959 C34.8137071,4.11803959 34.8137071,3.99325143 34.8137071,3.99325143 C34.8137071,1.74704939 33.1225035,0 31.0689141,0 C28.8945245,0 27.3241361,1.74704939 27.3241361,3.99325143 C27.3241361,6.11466531 28.8945245,7.86171469 31.0689141,7.86171469 C32.3977169,7.86171469 33.7265048,6.98819755 34.3305061,5.86508898 C35.5385086,6.23945347 36.5048957,6.61383306 37.108897,6.86340939 C37.592098,8.8600351 36.0217097,23.0860065 32.2769167,30.8229331 C29.0153247,37.9359188 24.6665304,41.1804412 23.2169423,42.1787465 C22.12974,41.4300176 20.4385514,41.1804412 19.1097486,41.1804412 C18.1433615,41.1804412 16.5729582,41.4300176 15.6065711,42.1787465 C14.156968,41.1804412 9.80818876,37.8111306 6.5465968,30.8229331 C2.8018038,23.0860065 1.23141546,8.8600351 1.71460148,6.86340939 C2.31860277,6.61383306 3.28500484,6.23945347 4.4929924,5.86508898 C5.21779395,6.98819755 6.42579654,7.86171469 7.75458436,7.86171469 C9.92898901,7.86171469 11.6201776,6.11466531 11.6201776,3.99325143 C11.6201776,1.74704939 9.92898901,0 7.75458436,0 C5.70099499,0 4.00980639,1.74704939 4.00980639,3.99325143 C4.00980639,3.99325143 4.00980639,4.11803959 4.00980639,4.11803959 C2.92260406,4.49241918 1.59380122,4.99157184 0.748214429,5.49072449 C0.265013395,5.74030082 -0.0973873811,6.4890449 0.0234128774,9.35918776 C0.0234128774,11.1062371 0.265013395,13.6020306 0.748214429,16.097809 C1.23141546,19.0927551 2.56020329,26.4553171 4.97619344,31.5716771 C8.60018617,39.1838155 13.190566,42.6779143 14.7609693,43.6762196 C14.6401691,45.9224367 16.4521579,49.7909 17.1769595,51.1635698 C17.7809608,52.037102 18.1433615,52.6610429 18.6265475,52.9106192 C18.8681481,64.6408122 28.1697229,74 39.4040869,74 C49.0680625,74 57.4032353,66.8870143 59.6984252,56.9038857 C64.8928062,56.5295061 69,52.1618902 69,46.6711657 Z M31.0689141,6.11466531 C29.8609265,6.11466531 29.0153247,5.11636 29.0153247,3.99325143 C29.0153247,2.7453698 29.8609265,1.74704939 31.0689141,1.74704939 C32.1561164,1.74704939 33.1225035,2.7453698 33.1225035,3.99325143 C33.1225035,5.11636 32.1561164,6.11466531 31.0689141,6.11466531 Z M7.75458436,1.74704939 C8.96258695,1.74704939 9.92898901,2.7453698 9.92898901,3.99325143 C9.92898901,5.11636 8.96258695,6.11466531 7.75458436,6.11466531 C6.66739706,6.11466531 5.70099499,5.11636 5.70099499,3.99325143 C5.70099499,2.7453698 6.66739706,1.74704939 7.75458436,1.74704939 Z M17.41856,47.7942592 C16.4521579,45.2984808 16.3313577,43.9257959 16.4521579,43.6762196 C16.5729582,43.4266433 17.41856,42.9274906 19.1097486,42.9274906 C20.8009522,42.9274906 22.12974,43.4266433 22.3713405,43.6762196 C22.3713405,43.6762196 22.3713405,43.6762196 22.3713405,43.6762196 C22.6129411,44.7993282 20.5593517,50.2900527 19.4721494,51.4131612 C18.9889483,50.9139935 18.2641618,49.7909 17.41856,47.7942592 Z M58.9736386,55.2816245 C54.3832438,55.2816245 50.7592511,51.4131612 50.7592511,46.6711657 C50.7592511,41.9291702 54.3832438,38.0607069 58.9736386,38.0607069 C63.5640184,38.0607069 67.3087964,41.9291702 67.3087964,46.6711657 C67.3087964,51.4131612 63.5640184,55.2816245 58.9736386,55.2816245 Z" id="Fill-2"></path>
                    </g>
                </g>
            </g>
        </g>
    </g>
</svg>