<?xml version="1.0" encoding="UTF-8"?>
<svg width="94px" height="94px" viewBox="0 0 94 94" version="1.1" xmlns="http://www.w3.org/2000/svg" xmlns:xlink="http://www.w3.org/1999/xlink">
    <!-- Generator: sketchtool 52.6 (67491) - http://www.bohemiancoding.com/sketch -->
    <title>56A790A8-4F7A-46B5-9B48-4AF7EFE3D0EF</title>
    <desc>Created with sketchtool.</desc>
    <g id="AKQ3900DLP-118---Drupal-Landingpage" stroke="none" stroke-width="1" fill="none" fill-rule="evenodd">
        <g id="01-Drupal-Landingpage-V1" transform="translate(-1203.000000, -976.000000)" fill="#FFFFFF" stroke="#FFFFFF">
            <g id="Group-7" transform="translate(1065.000000, 910.000000)">
                <g id="icon-design" transform="translate(139.000000, 67.000000)">
                    <path d="M90.7717793,1.2935 C89.8016487,0.48506 88.1847444,0 85.5976895,0 C79.6151276,0 65.3863858,3.07206 54.0680556,14.39016 C38.2223895,31.69068 38.2223895,31.69068 38.2223895,31.69068 C35.6353346,31.529 24.6403813,30.88224 18.8195258,33.14588 C11.8668353,35.57118 7.17781287,45.75748 7.01612244,46.08084 C6.69274157,46.5659 6.85443201,47.05096 7.17781287,47.37434 C7.3395033,47.69772 7.82457459,47.8594 8.30964588,47.69772 C14.4538822,45.75748 20.5981206,47.21266 23.3468539,48.02108 C22.2150249,49.31458 22.2150249,49.31458 22.2150249,49.31458 C21.4065727,50.28472 21.5682712,51.90158 22.2150249,53.68014 C17.5260004,58.53076 17.5260004,58.53076 17.5260004,58.53076 C15.4240268,60.79438 18.496145,65.80668 22.3767233,69.68718 C25.4488335,72.59754 29.1677174,75.346222 31.7547522,75.346222 C32.401526,75.346222 33.0482797,75.02285 33.533355,74.537786 C38.3840679,69.84886 38.3840679,69.84886 38.3840679,69.84886 C39.3542185,70.17224 40.3243491,70.4956 40.9711228,70.4956 C41.9412534,70.4956 42.4263286,70.01054 42.7497055,69.84886 C44.2049314,68.55536 44.2049314,68.55536 44.2049314,68.55536 C45.0133835,71.46572 46.306911,77.609844 44.3666098,83.753958 C44.3666098,84.239016 44.3666098,84.724076 44.6900067,85.047452 C45.0133835,85.209144 45.175062,85.209144 45.4984588,85.209144 C45.6601373,85.209144 45.8218357,85.209144 45.9835341,85.209144 C46.4685894,85.047452 56.4933921,80.196836 59.080447,73.405976 C61.1824266,67.42354 60.5356528,56.42882 60.3739744,53.84182 C77.6748464,37.99648 77.6748464,37.99648 77.6748464,37.99648 C91.2568546,24.41476 94.0055879,4.52724 90.7717793,1.2935 Z M10.0882406,44.94904 C11.8668353,41.87698 15.2623364,36.70298 19.4662916,35.2478 C24.155306,33.46924 32.2398275,33.63094 36.2820883,33.9543 C25.1254566,46.24254 25.1254566,46.24254 25.1254566,46.24254 C23.023477,45.4341 16.8792387,43.65554 10.0882406,44.94904 Z M32.0781491,72.92092 C31.4313754,73.405976 28.0358884,72.11248 23.9936276,68.0703 C19.9513669,64.02812 18.6578354,60.63268 19.1429147,60.14762 C23.3468539,55.78208 23.3468539,55.78208 23.3468539,55.78208 C24.9637582,58.36908 27.2274362,60.95606 29.1677174,62.8963 C31.5930738,65.32162 34.1801087,67.42354 36.2820883,68.71704 L32.0781491,72.92092 Z M56.9784674,72.59754 C55.3615631,76.801408 50.1874733,80.196836 47.2770416,81.975394 C48.570569,75.184534 46.7919663,69.04042 45.9835341,66.9385 C58.2719948,55.78208 58.2719948,55.78208 58.2719948,55.78208 C58.4336932,59.82426 58.5953717,68.0703 56.9784674,72.59754 Z M44.0432329,65.645 C43.8815545,65.645 43.8815545,65.80668 43.7198561,65.80668 C41.2944996,68.0703 41.2944996,68.0703 41.2944996,68.0703 C41.2944996,68.0703 41.1328012,68.23198 40.9711228,68.23198 C39.3542185,68.23198 35.3119577,65.80668 30.7846217,61.27944 C25.4488335,55.94376 23.5085523,51.5782 23.9936276,50.76978 C26.0955872,48.34446 26.0955872,48.34446 26.0955872,48.34446 C26.2572856,48.34446 26.2572856,48.34446 26.2572856,48.18278 C55.6849399,15.84534 55.6849399,15.84534 55.6849399,15.84534 C65.7097626,5.98242 79.1300723,2.26362 85.5976895,2.26362 C87.8613475,2.26362 88.8314981,2.74868 89.154875,2.91036 C91.2568546,5.0123 89.154875,23.28296 76.2196406,36.37962 L44.0432329,65.645 Z M63.9311599,20.37258 C61.9908787,20.37258 60.0505975,21.18102 58.5953717,22.6362 C55.5232615,25.54658 55.5232615,30.55888 58.5953717,33.46924 C60.0505975,34.92442 61.9908787,35.73286 63.9311599,35.73286 C66.0331395,35.73286 67.9734206,34.92442 69.4286465,33.46924 C72.5007567,30.55888 72.5007567,25.54658 69.4286465,22.6362 C67.9734206,21.18102 66.0331395,20.37258 63.9311599,20.37258 Z M67.8117422,31.85238 C66.8415916,32.98418 65.3863858,33.46924 63.9311599,33.46924 C62.475954,33.46924 61.1824266,32.98418 60.212276,31.85238 C57.948618,29.75044 57.948618,26.35502 60.212276,24.25308 C61.1824266,23.12126 62.475954,22.6362 63.9311599,22.6362 C65.3863858,22.6362 66.8415916,23.12126 67.8117422,24.25308 C69.9137218,26.35502 69.9137218,29.75044 67.8117422,31.85238 Z M23.9936276,75.669598 C24.8020798,79.226714 23.6702307,82.945522 20.5981206,86.01758 C17.36431,89.25132 12.8369779,89.898072 8.47133631,90.544814 C6.04597985,90.86819 3.6206214,91.1915664 1.51864581,92 C1.35695538,92 1.35695538,92 1.19526495,92 C0.871884286,92 0.548503226,92 0.386812996,91.6766254 C0.0634319354,91.5149422 -0.0982584948,91.0298832 0.0634319354,90.544814 C0.548503226,88.766262 0.871884286,86.664322 1.19526495,84.562392 C2.0037171,79.873466 2.65047882,74.861162 6.04597985,71.46572 C9.11809803,68.39368 12.8369779,67.26186 16.3941694,68.23198 C16.8792387,68.39368 17.36431,68.87874 17.2026195,69.52548 C17.0409291,70.17224 16.3941694,70.4956 15.7474077,70.33392 C12.9986684,69.68718 10.249931,70.4956 7.66288416,73.082604 C4.75245441,75.992974 4.10569269,80.520212 3.45893097,84.885768 C3.29724054,86.340946 2.97385968,87.796134 2.81216925,89.25132 C4.59076398,88.766262 6.36936071,88.442886 8.14795545,88.281192 C12.3519066,87.63445 16.232479,86.987698 18.9812163,84.4007 C21.5682712,81.813712 22.5384017,79.065026 21.7299496,76.316344 C21.5682712,75.669598 21.891648,75.02285 22.5384017,74.861162 C23.1851755,74.699474 23.8319292,75.184534 23.9936276,75.669598 Z" id="Fill-1"></path>
                </g>
            </g>
        </g>
    </g>
</svg>