<?xml version="1.0" encoding="UTF-8"?>
<svg width="82px" height="68px" viewBox="0 0 82 68" version="1.1" xmlns="http://www.w3.org/2000/svg" xmlns:xlink="http://www.w3.org/1999/xlink">
    <!-- Generator: sketchtool 52.6 (67491) - http://www.bohemiancoding.com/sketch -->
    <title>08D1989B-23C9-4A38-B2FF-4D2B43C5C75D</title>
    <desc>Created with sketchtool.</desc>
    <g id="AKQ3900DLP-118---Drupal-Landingpage" stroke="none" stroke-width="1" fill="none" fill-rule="evenodd">
        <g id="01-Drupal-Landingpage-V1" transform="translate(-390.000000, -2776.000000)" fill="#FFFFFF" stroke="#FFFFFF">
            <g id="Group-12" transform="translate(40.000000, 2273.000000)">
                <g id="Group-11" transform="translate(274.000000, 496.000000)">
                    <g id="icon-responsive" transform="translate(77.000000, 8.000000)">
                        <path d="M76.9369358,31.101375 C74.5945962,31.101375 74.5945962,31.101375 74.5945962,31.101375 C74.5945962,3.978075 74.5945962,3.978075 74.5945962,3.978075 C74.5945962,1.80822 72.7928,0 70.6306264,0 C3.96396377,0 3.96396377,0 3.96396377,0 C1.80180226,0 0,1.80822 0,3.978075 C0,47.194515 0,47.194515 0,47.194515 C0,49.364385 1.80180226,51.172605 3.96396377,51.172605 C29.3693736,51.172605 29.3693736,51.172605 29.3693736,51.172605 C29.0090113,57.682191 27.7477434,64.1917845 25.9459472,64.1917845 C22.1621585,64.1917845 22.1621585,64.1917845 22.1621585,64.1917845 C21.6216151,64.1917845 21.2612679,64.7342505 21.2612679,65.0958885 C21.2612679,65.6383548 21.6216151,66 22.1621585,66 C52.4324377,66 52.4324377,66 52.4324377,66 C52.972966,66 53.3333283,65.6383548 53.3333283,65.0958885 C53.3333283,64.7342505 52.972966,64.1917845 52.4324377,64.1917845 C49.1891925,64.1917845 49.1891925,64.1917845 49.1891925,64.1917845 C47.5675623,64.1917845 46.1261283,57.682191 45.765766,51.172605 C58.7387321,51.172605 58.7387321,51.172605 58.7387321,51.172605 C58.7387321,62.9260275 58.7387321,62.9260275 58.7387321,62.9260275 C58.7387321,64.553424 60.1801811,66 61.8017962,66 C76.9369358,66 76.9369358,66 76.9369358,66 C78.558566,66 80,64.553424 80,62.9260275 C80,34.17534 80,34.17534 80,34.17534 C80,32.36712 78.558566,31.101375 76.9369358,31.101375 Z M1.80180226,3.978075 C1.80180226,2.71233 2.7027034,1.627395 3.96396377,1.627395 C70.6306264,1.627395 70.6306264,1.627395 70.6306264,1.627395 C71.8918943,1.627395 72.7928,2.71233 72.7928,3.978075 C72.7928,6.509595 72.7928,6.509595 72.7928,6.509595 C1.80180226,6.509595 1.80180226,6.509595 1.80180226,6.509595 L1.80180226,3.978075 Z M46.6666717,64.1917845 C28.4684679,64.1917845 28.4684679,64.1917845 28.4684679,64.1917845 C30.4504453,61.1178105 30.9909887,54.427398 30.9909887,51.172605 C44.1441509,51.172605 44.1441509,51.172605 44.1441509,51.172605 C44.1441509,52.438359 44.3243321,55.150686 44.8648604,57.8630145 C45.2252226,60.756165 45.9459472,62.9260275 46.6666717,64.1917845 Z M58.7387321,49.364385 C3.96396377,49.364385 3.96396377,49.364385 3.96396377,49.364385 C2.7027034,49.364385 1.80180226,48.460275 1.80180226,47.194515 C1.80180226,44.66301 1.80180226,44.66301 1.80180226,44.66301 C58.7387321,44.66301 58.7387321,44.66301 58.7387321,44.66301 L58.7387321,49.364385 Z M58.7387321,34.17534 C58.7387321,42.85479 58.7387321,42.85479 58.7387321,42.85479 C1.80180226,42.85479 1.80180226,42.85479 1.80180226,42.85479 C1.80180226,8.13699 1.80180226,8.13699 1.80180226,8.13699 C72.7928,8.13699 72.7928,8.13699 72.7928,8.13699 C72.7928,31.101375 72.7928,31.101375 72.7928,31.101375 C61.8017962,31.101375 61.8017962,31.101375 61.8017962,31.101375 C60.1801811,31.101375 58.7387321,32.36712 58.7387321,34.17534 Z M78.1981887,62.9260275 C78.1981887,63.64932 77.6576604,64.1917845 76.9369358,64.1917845 C61.8017962,64.1917845 61.8017962,64.1917845 61.8017962,64.1917845 C61.0810868,64.1917845 60.5405434,63.64932 60.5405434,62.9260275 C60.5405434,61.298631 60.5405434,61.298631 60.5405434,61.298631 C78.1981887,61.298631 78.1981887,61.298631 78.1981887,61.298631 L78.1981887,62.9260275 Z M78.1981887,59.490411 C60.5405434,59.490411 60.5405434,59.490411 60.5405434,59.490411 C60.5405434,37.068495 60.5405434,37.068495 60.5405434,37.068495 C78.1981887,37.068495 78.1981887,37.068495 78.1981887,37.068495 L78.1981887,59.490411 Z M78.1981887,35.4411 C60.5405434,35.4411 60.5405434,35.4411 60.5405434,35.4411 C60.5405434,34.17534 60.5405434,34.17534 60.5405434,34.17534 C60.5405434,33.27123 61.0810868,32.72877 61.8017962,32.72877 C76.9369358,32.72877 76.9369358,32.72877 76.9369358,32.72877 C77.6576604,32.72877 78.1981887,33.27123 78.1981887,34.17534 L78.1981887,35.4411 Z" id="Fill-1"></path>
                    </g>
                </g>
            </g>
        </g>
    </g>
</svg>