<?xml version="1.0" encoding="UTF-8"?>
<svg width="85px" height="84px" viewBox="0 0 85 84" version="1.1" xmlns="http://www.w3.org/2000/svg" xmlns:xlink="http://www.w3.org/1999/xlink">
    <!-- Generator: sketchtool 52.6 (67491) - http://www.bohemiancoding.com/sketch -->
    <title>4F972969-DDD7-405E-9FFF-25321BD1281E</title>
    <desc>Created with sketchtool.</desc>
    <g id="AKQ3900DLP-118---Drupal-Landingpage" stroke="none" stroke-width="1" fill="none" fill-rule="evenodd">
        <g id="01-Drupal-Landingpage-V1" transform="translate(-661.000000, -2768.000000)" fill="#FFFFFF" stroke="#FFFFFF">
            <g id="Group-12" transform="translate(40.000000, 2273.000000)">
                <g id="Group-11" transform="translate(274.000000, 496.000000)">
                    <g id="icon-api" transform="translate(348.000000, 0.000000)">
                        <path d="M68.2662776,37.9212803 C68.0207184,37.9212803 67.6523644,37.8001863 67.5295847,37.5579984 C64.9511822,33.682931 64.9511822,33.682931 64.9511822,33.682931 C62.3727796,33.9251339 59.9171567,33.440743 57.4615338,32.4719762 C53.9008942,35.3782767 53.9008942,35.3782767 53.9008942,35.3782767 C53.6553198,35.6204647 53.1642013,35.6204647 52.918642,35.3782767 C50.5857987,33.9251339 48.7440891,32.1086942 47.2707033,29.9289725 C47.025144,29.5656906 47.025144,29.2024086 47.2707033,28.8391266 C50.2174598,25.3273562 50.2174598,25.3273562 50.2174598,25.3273562 C49.2352076,23.3898225 48.8668687,21.3312097 48.8668687,19.2725821 C48.8668687,18.6671121 48.8668687,18.1827212 48.8668687,17.5772513 C45.0606547,15.0342477 45.0606547,15.0342477 45.0606547,15.0342477 C44.6923007,14.9131537 44.5695211,14.4287628 44.6923007,14.0654808 C45.4289936,11.5224772 46.6568051,9.22166153 48.2529555,7.16304878 C48.4985147,6.79975188 48.9896484,6.79975188 49.2352076,6.92084587 C53.6553198,8.49509759 53.6553198,8.49509759 53.6553198,8.49509759 C55.6198242,6.79975188 57.9526675,5.58879706 60.6538496,5.1044211 C61.8816611,0.623898716 61.8816611,0.623898716 61.8816611,0.623898716 C62.0044407,0.26060182 62.25,0.0184138411 62.618354,0.0184138411 C65.3195362,-0.102680148 68.0207184,0.381695809 70.4763262,1.22936866 C70.8446802,1.35046265 71.0902395,1.71374462 71.0902395,2.07704152 C70.8446802,6.67865789 70.8446802,6.67865789 70.8446802,6.67865789 C73.1775084,8.0107067 75.0192331,9.94824039 76.2470445,12.249056 C80.9127311,12.0068531 80.9127311,12.0068531 80.9127311,12.0068531 C81.28107,12.0068531 81.6494089,12.249056 81.7721885,12.612338 C82.6316611,14.6709657 83,16.9717664 83,19.2725821 C83,19.635864 83,19.9991609 83,20.3624429 C83,20.7257249 82.7544407,20.9679128 82.3860867,21.0890218 C77.8431949,22.2999617 77.8431949,22.2999617 77.8431949,22.2999617 C77.2292816,24.8429653 76.0014853,27.1437809 74.2825402,29.0813146 C75.8786905,33.440743 75.8786905,33.440743 75.8786905,33.440743 C76.0014853,33.682931 75.8786905,34.1673219 75.6331313,34.2884159 C73.4230827,35.9837467 71.0902395,37.1947015 68.5118369,37.9212803 C68.3890573,37.9212803 68.3890573,37.9212803 68.2662776,37.9212803 Z M65.4423007,31.8665062 C65.6878751,31.8665062 66.056214,31.9876002 66.1789936,32.2297882 C68.6346165,36.1048406 68.6346165,36.1048406 68.6346165,36.1048406 C70.5991058,35.4993707 72.4408305,34.5306039 74.0369809,33.440743 C72.4408305,29.2024086 72.4408305,29.2024086 72.4408305,29.2024086 C72.3180509,28.8391266 72.4408305,28.4758297 72.6863898,28.2336418 C74.5280995,26.417217 75.755926,23.9953074 76.2470445,21.4523037 C76.2470445,21.0890218 76.4926038,20.8468189 76.8609427,20.7257249 C81.28107,19.635864 81.28107,19.635864 81.28107,19.635864 C81.28107,19.51477 81.28107,19.3936761 81.28107,19.2725821 C81.28107,17.3350633 81.0354956,15.5186236 80.4215975,13.7021988 C75.8786905,13.9443868 75.8786905,13.9443868 75.8786905,13.9443868 C75.5103516,13.9443868 75.1420127,13.7021988 75.0192331,13.4600109 C73.7914216,11.0381012 71.949712,9.22166153 69.4940891,8.0107067 C69.2485147,7.76851873 69.0029555,7.52633075 69.1257351,7.16304878 C69.3713095,2.68251146 69.3713095,2.68251146 69.3713095,2.68251146 C67.4068051,1.95594753 65.4423007,1.71374462 63.4778115,1.71374462 C63.4778115,1.71374462 63.3550318,1.71374462 63.3550318,1.71374462 C62.1272204,6.07318795 62.1272204,6.07318795 62.1272204,6.07318795 C62.0044407,6.31537593 61.7588815,6.5575639 61.3905275,6.67865789 C58.81214,7.04195479 56.3565171,8.25290961 54.3920127,10.0693344 C54.2692331,10.3115224 53.9008942,10.4326163 53.5325402,10.3115224 C49.2352076,8.73728557 49.2352076,8.73728557 49.2352076,8.73728557 C48.0073962,10.3115224 47.1479236,12.1279621 46.5340255,13.9443868 C50.3402395,16.4873905 50.3402395,16.4873905 50.3402395,16.4873905 C50.5857987,16.6084844 50.7085784,16.9717664 50.7085784,17.3350633 C50.5857987,17.9405333 50.5857987,18.5460181 50.5857987,19.2725821 C50.5857987,21.2101157 50.9541376,23.2687285 51.9363898,24.9640742 C52.0591695,25.3273562 52.0591695,25.6906381 51.8136102,25.9328261 C48.9896484,29.4445966 48.9896484,29.4445966 48.9896484,29.4445966 C50.2174598,31.1399274 51.6908305,32.4719762 53.2869809,33.682931 C56.8476356,30.7766454 56.8476356,30.7766454 56.8476356,30.7766454 C57.0931949,30.6555514 57.4615338,30.5344574 57.8298878,30.6555514 C59.5488178,31.6243183 61.5133071,31.9876002 63.4778115,31.9876002 C64.0917096,31.9876002 64.7056229,31.9876002 65.3195362,31.8665062 C65.3195362,31.8665062 65.4423007,31.8665062 65.4423007,31.8665062 Z M63.4778115,23.9953074 C60.8994089,23.9953074 58.6893453,21.8155857 58.6893453,19.2725821 C58.6893453,16.6084844 60.8994089,14.5498568 63.4778115,14.5498568 C66.1789936,14.5498568 68.2662776,16.6084844 68.2662776,19.2725821 C68.2662776,21.8155857 66.1789936,23.9953074 63.4778115,23.9953074 Z M63.4778115,16.2452025 C61.7588815,16.2452025 60.4082904,17.5772513 60.4082904,19.2725821 C60.4082904,20.9679128 61.7588815,22.2999617 63.4778115,22.2999617 C65.1967415,22.2999617 66.5473325,20.9679128 66.5473325,19.2725821 C66.5473325,17.5772513 65.1967415,16.2452025 63.4778115,16.2452025 Z M31.6775084,82 C31.4319491,82 31.4319491,82 31.4319491,82 C30.9408305,82 30.6952713,81.757812 30.5724916,81.3945301 C28.6079873,74.3709891 28.6079873,74.3709891 28.6079873,74.3709891 C25.5384662,74.0077071 22.5917096,73.0389403 19.8905275,71.5857975 C13.8742649,75.9452259 13.8742649,75.9452259 13.8742649,75.9452259 C13.6286905,76.1874288 13.2603516,76.1874288 12.8920127,75.9452259 C10.5591695,74.2498951 8.47190055,72.3123764 6.75295545,70.0115607 C6.50739618,69.7693727 6.50739618,69.4060758 6.75295545,69.0427939 C11.0503031,63.1091137 11.0503031,63.1091137 11.0503031,63.1091137 C9.20857836,60.3239221 8.10354655,57.2965425 7.612428,54.0269601 C0.613898182,52.0894413 0.613898182,52.0894413 0.613898182,52.0894413 C0.245559273,51.9683473 0,51.6050504 0,51.2417684 C0,51.1206745 0,50.8784865 0,50.6362985 C0,48.0932949 0.245559273,45.4291823 0.982252182,42.8861936 C0.982252182,42.5228967 1.35059109,42.2807087 1.71893,42.2807087 C9.08579873,42.0385208 9.08579873,42.0385208 9.08579873,42.0385208 C10.1908305,39.1322352 11.9097605,36.4681375 13.9970445,34.1673219 C11.1730827,27.6281718 11.1730827,27.6281718 11.1730827,27.6281718 C10.9275084,27.2648749 11.0503031,26.901593 11.418642,26.659405 C13.5059109,24.8429653 15.9615338,23.2687285 18.5399364,22.1788677 C18.9082904,21.9366797 19.2766293,22.0577737 19.5221885,22.2999617 C24.4334344,27.7492658 24.4334344,27.7492658 24.4334344,27.7492658 C26.7662776,27.0226869 29.2219005,26.659405 31.6775084,26.659405 C32.4142013,26.659405 33.1508942,26.780499 33.887572,26.780499 C37.3254471,20.4835369 37.3254471,20.4835369 37.3254471,20.4835369 C37.5710064,20.1202549 37.9393453,19.8780669 38.3076993,19.9991609 C41.1316611,20.6046309 43.8328433,21.5733977 46.4112458,22.9054465 C46.6568051,23.0265405 46.9023644,23.3898225 46.7795847,23.7531194 C45.5517733,30.8977394 45.5517733,30.8977394 45.5517733,30.8977394 C48.0073962,32.7141642 50.3402395,34.8938858 51.9363898,37.4368895 C59.1804789,36.2259346 59.1804789,36.2259346 59.1804789,36.2259346 C59.5488178,36.1048406 60.0399364,36.3470286 60.162716,36.5892315 C61.3905275,39.2533291 62.3727796,41.9174268 62.9866778,44.7026184 C62.9866778,45.0659003 62.8639133,45.4291823 62.4955593,45.6713852 C55.9881631,49.0620468 55.9881631,49.0620468 55.9881631,49.0620468 C55.9881631,49.5464377 55.9881631,50.1519076 55.9881631,50.6362985 C55.9881631,53.0581932 55.6198242,55.4801029 54.8831313,57.9020125 C60.4082904,62.7458318 60.4082904,62.7458318 60.4082904,62.7458318 C60.6538496,62.9880198 60.7766293,63.3513167 60.6538496,63.7145986 C59.4260382,66.2576023 57.8298878,68.6795119 55.9881631,70.8592336 C55.7426038,71.2225155 55.3742649,71.2225155 55.005926,71.1014066 C48.2529555,68.1951359 48.2529555,68.1951359 48.2529555,68.1951359 C46.0428918,70.2537487 43.587284,71.8279855 40.8861018,72.9178463 C40.5177478,80.1835603 40.5177478,80.1835603 40.5177478,80.1835603 C40.5177478,80.5468572 40.2721885,80.9101392 39.9038496,80.9101392 C37.2026675,81.636718 34.5014853,82 31.6775084,82 Z M19.7677478,69.6482787 C19.8905275,69.6482787 20.1361018,69.7693727 20.2588815,69.7693727 C23.0828433,71.4647035 26.1523644,72.4334703 29.3446802,72.7967523 C29.7130191,72.7967523 29.9585784,73.0389403 30.081358,73.4022223 C32.0458624,80.3046692 32.0458624,80.3046692 32.0458624,80.3046692 C34.3787056,80.3046692 36.5887542,79.9413873 38.7988178,79.4569964 C39.1671567,72.3123764 39.1671567,72.3123764 39.1671567,72.3123764 C39.1671567,71.9490795 39.412716,71.5857975 39.6582904,71.4647035 C42.6050318,70.3748427 45.1834344,68.8006059 47.5162776,66.6208842 C47.7618369,66.3786962 48.1301758,66.2576023 48.3757351,66.3786962 C55.1287056,69.2849818 55.1287056,69.2849818 55.1287056,69.2849818 C56.6020764,67.4685571 57.8298878,65.5310234 58.81214,63.5935046 C53.2869809,58.7496853 53.2869809,58.7496853 53.2869809,58.7496853 C53.0414216,58.5074974 52.918642,58.1442005 53.0414216,57.9020125 C53.9008942,55.4801029 54.2692331,53.0581932 54.2692331,50.6362985 C54.2692331,50.0308136 54.2692331,49.3042497 54.1464535,48.5776708 C54.1464535,48.3354828 54.3920127,47.9722009 54.637572,47.851092 C61.1449682,44.4604304 61.1449682,44.4604304 61.1449682,44.4604304 C60.6538496,42.1596147 59.9171567,39.9798931 58.9349196,37.9212803 C51.6908305,39.2533291 51.6908305,39.2533291 51.6908305,39.2533291 C51.4452713,39.2533291 51.0769173,39.1322352 50.831358,38.8900472 C49.112428,36.1048406 46.7795847,33.804025 44.0784025,31.9876002 C43.8328433,31.8665062 43.7100636,31.5032243 43.7100636,31.1399274 C45.0606547,24.1164013 45.0606547,24.1164013 45.0606547,24.1164013 C42.9733707,23.0265405 40.7633071,22.2999617 38.5532585,21.8155857 C35.1153835,28.1125478 35.1153835,28.1125478 35.1153835,28.1125478 C34.9926038,28.3547358 34.6242649,28.5969237 34.255926,28.5969237 C33.3964535,28.4758297 32.5369809,28.3547358 31.6775084,28.3547358 C29.2219005,28.3547358 26.7662776,28.8391266 24.4334344,29.5656906 C24.1878751,29.6867846 23.8195211,29.5656906 23.5739618,29.3235026 C18.662716,23.8742134 18.662716,23.8742134 18.662716,23.8742134 C16.6982267,24.9640742 14.7337224,26.0539201 13.0147924,27.5070778 C15.8387542,34.0462279 15.8387542,34.0462279 15.8387542,34.0462279 C15.9615338,34.4095099 15.9615338,34.7727918 15.7159745,35.0149798 C13.3831313,37.3157955 11.5414216,40.1009871 10.4363898,43.1283816 C10.3136102,43.4916636 10.0680509,43.6127575 9.69969691,43.7338515 C2.45562291,43.9760395 2.45562291,43.9760395 2.45562291,43.9760395 C1.96450436,46.1557612 1.71893,48.3354828 1.71893,50.6362985 C8.71745982,52.5738173 8.71745982,52.5738173 8.71745982,52.5738173 C8.96301909,52.5738173 9.20857836,52.9370992 9.331358,53.3003961 C9.69969691,56.5699637 10.9275084,59.8395462 12.7692331,62.7458318 C12.8920127,62.9880198 12.8920127,63.3513167 12.7692331,63.7145986 C8.47190055,69.5271698 8.47190055,69.5271698 8.47190055,69.5271698 C9.94527127,71.2225155 11.5414216,72.7967523 13.3831313,74.1288011 C19.2766293,69.8904518 19.2766293,69.8904518 19.2766293,69.8904518 C19.3994089,69.7693727 19.6449682,69.6482787 19.7677478,69.6482787 Z M31.6775084,58.5074974 C27.3801758,58.5074974 23.6967415,54.9957269 23.6967415,50.6362985 C23.6967415,46.2768552 27.3801758,42.7650847 31.6775084,42.7650847 C36.0976356,42.7650847 39.6582904,46.2768552 39.6582904,50.6362985 C39.6582904,54.9957269 36.0976356,58.5074974 31.6775084,58.5074974 Z M31.6775084,44.4604304 C28.2396484,44.4604304 25.4156865,47.245622 25.4156865,50.6362985 C25.4156865,54.0269601 28.2396484,56.8121517 31.6775084,56.8121517 C35.1153835,56.8121517 37.9393453,54.0269601 37.9393453,50.6362985 C37.9393453,47.245622 35.1153835,44.4604304 31.6775084,44.4604304 Z" id="Fill-2"></path>
                    </g>
                </g>
            </g>
        </g>
    </g>
</svg>