<?xml version="1.0" encoding="UTF-8"?>
<svg width="61px" height="79px" viewBox="0 0 61 79" version="1.1" xmlns="http://www.w3.org/2000/svg" xmlns:xlink="http://www.w3.org/1999/xlink">
    <!-- Generator: sketchtool 52.6 (67491) - http://www.bohemiancoding.com/sketch -->
    <title>FC4FB7B3-39E1-4E88-8941-963500E1B965</title>
    <desc>Created with sketchtool.</desc>
    <g id="AKQ3900DLP-118---Drupal-Landingpage" stroke="none" stroke-width="1" fill="none" fill-rule="evenodd">
        <g id="01-Drupal-Landingpage-V1" transform="translate(-1219.000000, -2771.000000)" fill="#FFFFFF" stroke="#FFFFFF">
            <g id="Group-12" transform="translate(40.000000, 2273.000000)">
                <g id="Group-11" transform="translate(274.000000, 496.000000)">
                    <g id="icon-security" transform="translate(906.000000, 3.000000)">
                        <path d="M58.3828449,4.74407569 C51.1004144,2.55449765 40.2384992,0 29.5,0 C29.5,0 29.5,0 29.5,0 C29.5,0 29.5,0 29.5,0 C29.5,0 29.5,0 29.5,0 C27.6485346,0 25.6736382,0.121644902 23.8221728,0.243289804 C23.8221728,0.243289804 23.6987418,0.243289804 23.6987418,0.243289804 C23.6987418,0.243289804 23.6987418,0.243289804 23.6987418,0.243289804 C23.6987418,0.243289804 23.6987418,0.243289804 23.5753108,0.243289804 C21.7238454,0.364934706 19.748949,0.608209412 17.8974836,0.851499216 C17.8974836,0.851499216 17.8974836,0.851499216 17.7740526,0.851499216 C15.9225872,1.09478902 14.0711309,1.45970863 12.0962345,1.82464333 C12.0962345,1.82464333 12.0962345,1.82464333 12.0962345,1.82464333 C10.2447706,2.18957804 8.26987569,2.67614255 6.41841031,3.16272216 C6.29497928,3.16272216 6.29497928,3.16272216 6.29497928,3.16272216 C4.44351541,3.64928667 2.468619,4.13586627 0.4937238,4.74407569 C0.2468619,4.86572059 0,5.23065529 0,5.5955749 C0,52.9146869 0,52.9146869 0,52.9146869 C0,54.7393453 1.60460182,59.1184863 12.5899586,67.2685649 C14.1945604,68.4849973 15.9225872,69.7014221 17.5271905,70.7962081 C17.5271905,70.7962081 17.5271905,70.7962081 17.5271905,70.7962081 C22.4644315,74.0805661 27.1548105,76.5134311 29.376569,77 C29.376569,77 29.376569,77 29.376569,77 C29.376569,77 29.5,77 29.5,77 C29.5,77 29.5,77 29.5,77 C29.5,77 29.5,77 29.5,77 C29.5,77 29.5,77 29.5,77 C29.623431,77 29.623431,77 29.7468621,77 C32.2154826,76.5134311 39.4979131,72.7424949 46.0397423,68.1200656 C51.9644315,63.9842054 59,58.0236973 59,52.9146869 C59,5.5955749 59,5.5955749 59,5.5955749 C59,5.23065529 58.7531379,4.86572059 58.3828449,4.74407569 Z M24.562759,1.82464333 C25.9205003,1.82464333 27.2782415,1.70299843 28.6359828,1.70299843 C28.6359828,75.0537133 28.6359828,75.0537133 28.6359828,75.0537133 C27.6485346,74.6887831 26.2907933,73.9589273 24.68619,73.1074265 L24.562759,1.82464333 Z M22.9581556,72.1342794 C21.6004144,71.4044236 20.3661041,70.5529229 18.8849318,69.5797833 C18.8849318,2.43285275 18.8849318,2.43285275 18.8849318,2.43285275 C20.2426731,2.31122294 21.6004144,2.06793314 22.8347246,2.06793314 L22.9581556,72.1342794 Z M7.405857,4.62243078 C8.76359828,4.25751118 10.1213396,4.01422137 11.3556498,3.77093157 C11.4790793,64.2274906 11.4790793,64.2274906 11.4790793,64.2274906 C9.99790854,63.0110582 8.64016726,61.9162737 7.405857,60.8214847 L7.405857,4.62243078 Z M1.72803285,52.9146869 C1.72803285,6.20378431 1.72803285,6.20378431 1.72803285,6.20378431 C2.9623431,5.83886471 4.32008438,5.47393 5.67782415,5.10901039 C5.67782415,59.2401312 5.67782415,59.2401312 5.67782415,59.2401312 C3.08577413,56.5639886 1.72803285,54.3744106 1.72803285,52.9146869 Z M13.2071137,65.5655619 C13.0836812,3.40599686 13.0836812,3.40599686 13.0836812,3.40599686 C14.4414149,3.16272216 15.7991713,2.91943235 17.1568974,2.67614255 C17.1568974,68.4849973 17.1568974,68.4849973 17.1568974,68.4849973 C16.0460182,67.633495 14.8117079,66.7819943 13.7008378,65.9304936 C13.4539742,65.8088472 13.3305447,65.6872083 13.2071137,65.5655619 Z M57.2719656,52.9146869 C57.2719656,60.3349051 36.6589995,72.7424949 30.3640172,75.0537133 C30.3640172,1.70299843 30.3640172,1.70299843 30.3640172,1.70299843 C40.3619303,1.82464333 50.3598282,4.13586627 57.2719656,6.20378431 L57.2719656,52.9146869 Z" id="Fill-1"></path>
                    </g>
                </g>
            </g>
        </g>
    </g>
</svg>