<svg version="1.0" xmlns="http://www.w3.org/2000/svg" width="183px" height="32px" viewBox="0 0 3980 670" preserveAspectRatio="xMidYMid meet">
<g id="layer101" fill="#FFFFFF" stroke="none">
 <path d="M770 665 c0 -8 130 -627 136 -647 4 -14 16 -18 55 -18 43 0 50 2 45 18 -7 23 -136 636 -136 645 0 4 -22 7 -50 7 -27 0 -50 -2 -50 -5z"/>
 <path d="M1815 648 c9 -37 135 -639 135 -644 0 -2 23 -4 51 -4 48 0 51 1 46 23 -4 12 -34 152 -67 312 -33 160 -63 300 -67 313 -4 19 -12 22 -54 22 -46 0 -49 -1 -44 -22z"/>
 <path d="M2960 658 c1 -7 32 -157 69 -333 l68 -320 50 -3 51 -3 -34 158 c-18 87 -50 238 -70 336 l-37 177 -49 0 c-32 0 -48 -4 -48 -12z"/>
 <path d="M73 575 c-44 -19 -73 -69 -73 -125 0 -66 46 -259 71 -294 37 -54 68 -70 139 -74 102 -5 153 37 154 125 l1 48 -47 3 c-47 3 -48 2 -48 -26 0 -58 -62 -81 -104 -39 -25 25 -53 124 -63 223 -5 48 -4 53 22 70 24 16 30 16 54 3 14 -8 34 -31 44 -52 18 -35 21 -37 67 -37 48 0 49 0 40 28 -16 53 -28 79 -55 110 -41 49 -135 67 -202 37z"/>
 <path d="M443 575 c-44 -19 -73 -69 -73 -125 0 -68 47 -259 72 -297 48 -72 169 -97 239 -50 54 36 67 91 45 197 -28 141 -47 196 -77 234 -45 53 -136 72 -206 41z m120 -95 c29 -23 39 -50 62 -169 19 -95 12 -126 -29 -137 -56 -14 -84 26 -110 157 -22 106 -19 140 14 156 33 16 33 16 63 -7z"/>
 <path d="M1113 575 c-39 -17 -63 -52 -70 -103 -6 -43 32 -242 54 -287 37 -72 87 -105 163 -105 98 0 150 48 150 139 l0 41 -50 0 c-48 0 -50 -1 -50 -28 0 -34 -27 -62 -59 -62 -43 0 -66 39 -90 152 -27 126 -25 148 11 166 39 18 72 1 94 -47 17 -40 19 -41 66 -41 26 0 48 2 48 5 0 23 -46 117 -68 138 -48 46 -135 60 -199 32z"/>
 <path d="M1480 573 c-40 -20 -70 -72 -70 -119 0 -44 36 -216 55 -261 32 -77 86 -113 167 -113 101 0 156 63 145 165 -10 88 -48 234 -70 266 -36 53 -71 72 -134 76 -42 3 -68 -1 -93 -14z m120 -88 c31 -16 37 -30 65 -163 21 -101 19 -119 -10 -138 -31 -20 -69 -12 -89 19 -19 28 -58 209 -54 245 2 16 12 31 28 39 31 16 25 16 60 -2z"/>
 <path d="M2634 576 c-78 -35 -91 -100 -53 -274 36 -168 75 -213 185 -220 73 -5 116 13 141 61 22 42 20 100 -6 220 -25 116 -49 167 -91 197 -39 28 -132 36 -176 16z m132 -110 c28 -31 70 -236 54 -266 -24 -44 -99 -30 -119 23 -22 57 -49 220 -41 242 15 40 69 41 106 1z"/>
 <path d="M2050 576 c0 -2 22 -109 50 -237 27 -129 50 -237 50 -241 0 -5 22 -8 49 -8 l49 0 10 48 c6 26 16 79 23 117 6 39 14 75 18 82 4 7 40 -43 85 -117 l78 -130 53 0 52 0 -28 133 c-15 72 -39 182 -51 242 l-24 110 -47 3 c-56 4 -56 9 -23 -143 13 -60 23 -111 22 -112 -1 -1 -24 35 -52 80 -47 76 -53 82 -86 85 -36 3 -36 3 -47 -47 -6 -28 -14 -70 -18 -93 l-6 -43 -18 80 c-9 44 -22 106 -29 138 l-11 57 -50 0 c-27 0 -49 -2 -49 -4z"/>
 <path d="M3200 567 c0 -14 86 -428 96 -459 5 -16 19 -18 106 -18 115 0 158 17 177 72 31 89 -15 222 -93 265 -18 10 -18 12 3 74 11 34 21 67 21 71 0 4 -24 8 -53 8 l-52 0 -19 -65 c-16 -56 -22 -65 -42 -65 -20 0 -24 8 -36 63 l-14 62 -47 3 c-35 2 -47 0 -47 -11z m239 -223 c26 -19 51 -71 51 -108 0 -36 -26 -56 -70 -56 -42 0 -45 5 -65 110 -4 19 -9 43 -11 53 -4 14 1 17 33 17 21 0 49 -7 62 -16z"/>
 <path d="M3594 563 c2 -10 26 -120 52 -245 l48 -228 139 0 140 0 -7 31 c-3 17 -6 38 -6 45 0 11 -21 14 -94 14 l-93 0 -7 39 c-3 22 -9 46 -12 55 -5 14 4 16 60 16 71 0 71 0 60 59 l-6 31 -68 0 c-66 0 -68 0 -73 29 -3 16 -9 40 -13 55 l-6 26 92 0 c82 0 91 2 86 18 -3 9 -8 29 -12 45 l-6 27 -140 0 c-128 0 -139 -1 -134 -17z"/>
 </g>
</svg>
